# xmcd
#
# Track frame offsets: 
#        150
#        12107
#        29459
#        40604
#        44701
#        65760
#        81114
#        94403
#        111660
#        123341
#        132230
#        147555
#        159957
#        176249
#        190207
#        207551
#        222315
#        232607
#        248246
#        262898
#        280841
#        301071
#        319584
#        339076
#
# Disc length: 4671 seconds
#
# Revision: 0
# Processed by: cddbd v1.5.2PL0 Copyright (c) Steve Scherf et al.
# Submitted via: ExactAudioCopy v0.99pb5
#
DISCID=5c123d18
DTITLE=Raekwon - Only Built 4 Cuban Linx...Pt. II
DYEAR=2009
DGENRE=Hip-Hop
TTITLE0=Return Of The North Star (feat. Papa Wu)
TTITLE1=House Of Flying Daggers (feat. Inspectah Deck aka Rollie Finge
TTITLE1=rs, Ghostface Killah aka Tony Starks, Method Man aka Johnny Bl
TTITLE1=aze
TTITLE2=Sonny's Missing
TTITLE3=Pyrex Vision
TTITLE4=Cold Outside (feat. Ghostface Killah aka Tony Starks)
TTITLE5=Black Mozart (feat. RZA aka Bobby Steels, Inspectah Deck aka R
TTITLE5=ollie Fingers)
TTITLE6=Gihad
TTITLE7=New Wu (feat. Ghostface Killah aka Tony Starks, Method Man aka
TTITLE7=Johnny Blaze)
TTITLE8=Penitentiary (feat. Ghostface Killah aka Tony Starks)
TTITLE9=Baggin Crack
TTITLE10=Surgical Gloves
TTITLE11=Broken Safety (feat. Jadakiss aka Montega Jada, Styles P aka 
TTITLE11=Styles Pinero)
TTITLE12=Canal Street
TTITLE13=Ason Jones
TTITLE14=Have Mercy (feat. Beanie Sigel aka Mack Mittens, Blue Raspber
TTITLE14=ry)
TTITLE15=10 Bricks (feat. Cappadonna aka Cappachino, Ghostface Killah 
TTITLE15=aka Tony Starks)
TTITLE16=Fat Lady Sings
TTITLE17=Catalina (feat. Lyfe Jennings)
TTITLE18=We Will Rob You (feat. Slick Rick, Masta Killa aka Noodles, G
TTITLE18=ZA aka Maximillion)
TTITLE19=About Me
TTITLE20=Mean Streets (feat. Inspectah Deck aka Rollie Fingers, Ghostf
TTITLE20=ace Killah aka Tony Starks)
TTITLE21=Kiss The Ring (feat. Inspectah Deck aka Rollie Fingers, Masta
TTITLE21=Killa aka Noodles)
TTITLE22=Walk Wit Me
TTITLE23=The Badlands (feat. Ghostface Killah aka Tony Starks)
EXTD=
EXTT0=
EXTT1=
EXTT2=
EXTT3=
EXTT4=
EXTT5=
EXTT6=
EXTT7=
EXTT8=
EXTT9=
EXTT10=
EXTT11=
EXTT12=
EXTT13=
EXTT14=
EXTT15=
EXTT16=
EXTT17=
EXTT18=
EXTT19=
EXTT20=
EXTT21=
EXTT22=
EXTT23=
PLAYORDER=
